<mxfile host="app.diagrams.net" modified="2020-09-25T16:33:06.004Z" agent="5.0 (Macintosh; Intel Mac OS X 10_14_2) AppleWebKit/537.36 (KHTML, like Gecko) Chrome/85.0.4183.102 Safari/537.36" etag="GMA04JDmeq5KJma6d0hM" version="13.7.5" type="github">
  <diagram name="Page-1" id="e7e014a7-5840-1c2e-5031-d8a46d1fe8dd">
    <mxGraphModel dx="870" dy="707" grid="1" gridSize="10" guides="1" tooltips="1" connect="1" arrows="1" fold="1" page="1" pageScale="1" pageWidth="827" pageHeight="1169" background="#ffffff" math="0" shadow="0">
      <root>
        <mxCell id="0" />
        <mxCell id="1" parent="0" />
        <mxCell id="2" value="Participant" style="swimlane;whiteSpace=wrap" parent="1" vertex="1">
          <mxGeometry x="40" y="80" width="240" height="680" as="geometry" />
        </mxCell>
        <mxCell id="eTK_frsckVeU1uCwgibv-47" value="" style="edgeStyle=orthogonalEdgeStyle;rounded=0;orthogonalLoop=1;jettySize=auto;html=1;" parent="2" source="eTK_frsckVeU1uCwgibv-42" target="eTK_frsckVeU1uCwgibv-45" edge="1">
          <mxGeometry relative="1" as="geometry" />
        </mxCell>
        <mxCell id="eTK_frsckVeU1uCwgibv-42" value="" style="ellipse;whiteSpace=wrap;html=1;fillColor=#000000;" parent="2" vertex="1">
          <mxGeometry x="110" y="40" width="20" height="20" as="geometry" />
        </mxCell>
        <mxCell id="eTK_frsckVeU1uCwgibv-45" value="Wishes to participate" style="rounded=0;whiteSpace=wrap;html=1;fontFamily=Helvetica;fontSize=12;fontColor=#000000;align=center;" parent="2" vertex="1">
          <mxGeometry x="80" y="90" width="80" height="60" as="geometry" />
        </mxCell>
        <mxCell id="eTK_frsckVeU1uCwgibv-57" value="" style="edgeStyle=orthogonalEdgeStyle;rounded=0;orthogonalLoop=1;jettySize=auto;html=1;exitX=1;exitY=0.5;exitDx=0;exitDy=0;" parent="2" source="eTK_frsckVeU1uCwgibv-91" target="eTK_frsckVeU1uCwgibv-56" edge="1">
          <mxGeometry relative="1" as="geometry">
            <mxPoint x="160" y="210" as="sourcePoint" />
          </mxGeometry>
        </mxCell>
        <mxCell id="eTK_frsckVeU1uCwgibv-70" value="" style="edgeStyle=orthogonalEdgeStyle;rounded=0;orthogonalLoop=1;jettySize=auto;html=1;" parent="2" source="eTK_frsckVeU1uCwgibv-56" target="eTK_frsckVeU1uCwgibv-69" edge="1">
          <mxGeometry relative="1" as="geometry" />
        </mxCell>
        <mxCell id="eTK_frsckVeU1uCwgibv-56" value="" style="rhombus;whiteSpace=wrap;html=1;fontFamily=Helvetica;fontSize=12;fontColor=#000000;align=center;" parent="2" vertex="1">
          <mxGeometry x="280" y="190" width="40" height="40" as="geometry" />
        </mxCell>
        <mxCell id="eTK_frsckVeU1uCwgibv-91" value="" style="rhombus;whiteSpace=wrap;html=1;fontFamily=Helvetica;fontSize=12;fontColor=#000000;align=center;" parent="2" vertex="1">
          <mxGeometry x="100" y="190" width="40" height="40" as="geometry" />
        </mxCell>
        <mxCell id="eTK_frsckVeU1uCwgibv-69" value="" style="rhombus;whiteSpace=wrap;html=1;fontFamily=Helvetica;fontSize=12;fontColor=#000000;align=center;" parent="2" vertex="1">
          <mxGeometry x="400" y="190" width="40" height="40" as="geometry" />
        </mxCell>
        <mxCell id="eTK_frsckVeU1uCwgibv-95" value="&lt;a href=&quot;https://github.com/AfrikaBurn/TMI/issues/53&quot;&gt;Submits registration&lt;/a&gt;" style="text;html=1;strokeColor=none;fillColor=none;align=center;verticalAlign=middle;whiteSpace=wrap;rounded=0;" parent="2" vertex="1">
          <mxGeometry x="140" y="291" width="40" height="20" as="geometry" />
        </mxCell>
        <mxCell id="eTK_frsckVeU1uCwgibv-66" value="" style="ellipse;html=1;shape=endState;fillColor=#000000;strokeColor=#ff0000;" parent="2" vertex="1">
          <mxGeometry x="168" y="365" width="30" height="30" as="geometry" />
        </mxCell>
        <mxCell id="LSgEw5MmOkTpCxkL0QqH-18" value="Completes Course" style="rounded=0;whiteSpace=wrap;html=1;fontFamily=Helvetica;fontSize=12;fontColor=#000000;align=center;" parent="2" vertex="1">
          <mxGeometry x="80" y="510" width="80" height="60" as="geometry" />
        </mxCell>
        <mxCell id="3" value="Access Token" style="swimlane;whiteSpace=wrap;startSize=23;" parent="1" vertex="1">
          <mxGeometry x="280" y="80" width="240" height="680" as="geometry" />
        </mxCell>
        <mxCell id="eTK_frsckVeU1uCwgibv-48" value="&lt;a href=&quot;https://github.com/AfrikaBurn/TMI/issues/53&quot;&gt;Shows login / Registration&lt;br&gt;form&lt;/a&gt;" style="rounded=0;whiteSpace=wrap;html=1;fontFamily=Helvetica;fontSize=12;fontColor=#000000;align=center;" parent="3" vertex="1">
          <mxGeometry x="80" y="90" width="80" height="60" as="geometry" />
        </mxCell>
        <mxCell id="eTK_frsckVeU1uCwgibv-58" value="&lt;a href=&quot;https://github.com/AfrikaBurn/TMI/issues/53&quot;&gt;Fail&lt;/a&gt;" style="text;html=1;strokeColor=none;fillColor=none;align=center;verticalAlign=middle;whiteSpace=wrap;rounded=0;" parent="3" vertex="1">
          <mxGeometry x="100" y="210" width="40" height="20" as="geometry" />
        </mxCell>
        <mxCell id="eTK_frsckVeU1uCwgibv-63" value="&lt;a href=&quot;https://github.com/AfrikaBurn/TMI/issues/53&quot;&gt;Lock&lt;br&gt;Account&lt;/a&gt;" style="rounded=0;whiteSpace=wrap;html=1;fontFamily=Helvetica;fontSize=12;fontColor=#000000;align=center;" parent="3" vertex="1">
          <mxGeometry x="140" y="270" width="80" height="60" as="geometry" />
        </mxCell>
        <mxCell id="eTK_frsckVeU1uCwgibv-72" value="&lt;a href=&quot;https://github.com/AfrikaBurn/TMI/issues/53&quot;&gt;Logs participant in&lt;br&gt;&amp;amp; creates session&lt;/a&gt;" style="rounded=0;whiteSpace=wrap;html=1;fontFamily=Helvetica;fontSize=12;fontColor=#000000;align=center;" parent="3" vertex="1">
          <mxGeometry x="20" y="270" width="80" height="60" as="geometry" />
        </mxCell>
        <mxCell id="eTK_frsckVeU1uCwgibv-97" style="edgeStyle=orthogonalEdgeStyle;rounded=0;orthogonalLoop=1;jettySize=auto;html=1;exitX=0.5;exitY=0;exitDx=0;exitDy=0;entryX=0.5;entryY=1;entryDx=0;entryDy=0;" parent="3" source="eTK_frsckVeU1uCwgibv-96" target="eTK_frsckVeU1uCwgibv-72" edge="1">
          <mxGeometry relative="1" as="geometry" />
        </mxCell>
        <mxCell id="eTK_frsckVeU1uCwgibv-96" value="&lt;a href=&quot;https://github.com/AfrikaBurn/TMI/issues/53&quot;&gt;Creates account&lt;/a&gt;" style="rounded=0;whiteSpace=wrap;html=1;fontFamily=Helvetica;fontSize=12;fontColor=#000000;align=center;" parent="3" vertex="1">
          <mxGeometry x="20" y="421" width="80" height="60" as="geometry" />
        </mxCell>
        <mxCell id="eTK_frsckVeU1uCwgibv-68" value="4th&lt;br&gt;Fail" style="text;html=1;strokeColor=none;fillColor=none;align=center;verticalAlign=middle;whiteSpace=wrap;rounded=0;" parent="3" vertex="1">
          <mxGeometry x="180" y="230" width="40" height="20" as="geometry" />
        </mxCell>
        <mxCell id="LSgEw5MmOkTpCxkL0QqH-6" value="&amp;lt; 4&lt;br&gt;attempts" style="text;html=1;strokeColor=none;fillColor=none;align=center;verticalAlign=middle;whiteSpace=wrap;rounded=0;" parent="3" vertex="1">
          <mxGeometry x="190" y="150" width="40" height="20" as="geometry" />
        </mxCell>
        <mxCell id="LSgEw5MmOkTpCxkL0QqH-7" value="&lt;a href=&quot;https://github.com/AfrikaBurn/TMI/issues/53&quot;&gt;Shows&lt;br&gt;Account retrieval page&lt;/a&gt;" style="rounded=0;whiteSpace=wrap;html=1;fontFamily=Helvetica;fontSize=12;fontColor=#000000;align=center;" parent="3" vertex="1">
          <mxGeometry x="140" y="350" width="80" height="60" as="geometry" />
        </mxCell>
        <mxCell id="eTK_frsckVeU1uCwgibv-88" value="" style="edgeStyle=orthogonalEdgeStyle;rounded=0;orthogonalLoop=1;jettySize=auto;html=1;entryX=0.5;entryY=0;entryDx=0;entryDy=0;" parent="3" source="eTK_frsckVeU1uCwgibv-63" target="LSgEw5MmOkTpCxkL0QqH-7" edge="1">
          <mxGeometry relative="1" as="geometry" />
        </mxCell>
        <mxCell id="LSgEw5MmOkTpCxkL0QqH-12" value="" style="rhombus;whiteSpace=wrap;html=1;fontFamily=Helvetica;fontSize=12;fontColor=#000000;align=center;" parent="3" vertex="1">
          <mxGeometry x="160" y="430" width="40" height="40" as="geometry" />
        </mxCell>
        <mxCell id="LSgEw5MmOkTpCxkL0QqH-15" value="Not" style="text;html=1;strokeColor=none;fillColor=none;align=center;verticalAlign=middle;whiteSpace=wrap;rounded=0;" parent="3" vertex="1">
          <mxGeometry x="120" y="470" width="40" height="20" as="geometry" />
        </mxCell>
        <mxCell id="LSgEw5MmOkTpCxkL0QqH-20" value="Marks user Acculturated" style="rounded=0;whiteSpace=wrap;html=1;fontFamily=Helvetica;fontSize=12;fontColor=#000000;align=center;" parent="3" vertex="1">
          <mxGeometry x="80" y="560" width="80" height="60" as="geometry" />
        </mxCell>
        <mxCell id="4" value="Learn" style="swimlane;whiteSpace=wrap;startSize=23;" parent="1" vertex="1">
          <mxGeometry x="520" y="80" width="120" height="680" as="geometry" />
        </mxCell>
        <mxCell id="LSgEw5MmOkTpCxkL0QqH-13" value="Acculturated" style="text;html=1;strokeColor=none;fillColor=none;align=center;verticalAlign=middle;whiteSpace=wrap;rounded=0;" parent="4" vertex="1">
          <mxGeometry x="40" y="421" width="40" height="20" as="geometry" />
        </mxCell>
        <mxCell id="LSgEw5MmOkTpCxkL0QqH-16" value="Shows Acculturation course" style="rounded=0;whiteSpace=wrap;html=1;fontFamily=Helvetica;fontSize=12;fontColor=#000000;align=center;" parent="4" vertex="1">
          <mxGeometry x="20" y="470" width="80" height="60" as="geometry" />
        </mxCell>
        <mxCell id="eTK_frsckVeU1uCwgibv-49" value="" style="edgeStyle=orthogonalEdgeStyle;rounded=0;orthogonalLoop=1;jettySize=auto;html=1;entryX=0;entryY=0.5;entryDx=0;entryDy=0;" parent="1" source="eTK_frsckVeU1uCwgibv-45" target="eTK_frsckVeU1uCwgibv-48" edge="1">
          <mxGeometry relative="1" as="geometry" />
        </mxCell>
        <mxCell id="eTK_frsckVeU1uCwgibv-55" value="" style="edgeStyle=orthogonalEdgeStyle;rounded=0;orthogonalLoop=1;jettySize=auto;html=1;entryX=0.5;entryY=0;entryDx=0;entryDy=0;" parent="1" source="eTK_frsckVeU1uCwgibv-48" target="eTK_frsckVeU1uCwgibv-91" edge="1">
          <mxGeometry relative="1" as="geometry">
            <mxPoint x="160" y="270" as="targetPoint" />
            <Array as="points">
              <mxPoint x="400" y="250" />
              <mxPoint x="160" y="250" />
            </Array>
          </mxGeometry>
        </mxCell>
        <mxCell id="eTK_frsckVeU1uCwgibv-60" value="" style="edgeStyle=orthogonalEdgeStyle;rounded=0;orthogonalLoop=1;jettySize=auto;html=1;exitX=0.5;exitY=1;exitDx=0;exitDy=0;entryX=0.5;entryY=0;entryDx=0;entryDy=0;" parent="1" source="eTK_frsckVeU1uCwgibv-56" target="eTK_frsckVeU1uCwgibv-72" edge="1">
          <mxGeometry relative="1" as="geometry">
            <mxPoint x="340" y="350" as="targetPoint" />
            <Array as="points" />
          </mxGeometry>
        </mxCell>
        <mxCell id="eTK_frsckVeU1uCwgibv-62" value="" style="edgeStyle=orthogonalEdgeStyle;rounded=0;orthogonalLoop=1;jettySize=auto;html=1;exitX=0.5;exitY=1;exitDx=0;exitDy=0;" parent="1" source="eTK_frsckVeU1uCwgibv-69" target="eTK_frsckVeU1uCwgibv-63" edge="1">
          <mxGeometry relative="1" as="geometry">
            <mxPoint x="460" y="340" as="targetPoint" />
          </mxGeometry>
        </mxCell>
        <mxCell id="eTK_frsckVeU1uCwgibv-71" style="edgeStyle=orthogonalEdgeStyle;rounded=0;orthogonalLoop=1;jettySize=auto;html=1;exitX=0.5;exitY=0;exitDx=0;exitDy=0;entryX=1;entryY=0.5;entryDx=0;entryDy=0;" parent="1" source="eTK_frsckVeU1uCwgibv-69" target="eTK_frsckVeU1uCwgibv-48" edge="1">
          <mxGeometry relative="1" as="geometry" />
        </mxCell>
        <mxCell id="eTK_frsckVeU1uCwgibv-77" value="" style="edgeStyle=orthogonalEdgeStyle;rounded=0;orthogonalLoop=1;jettySize=auto;html=1;entryX=0;entryY=0.5;entryDx=0;entryDy=0;exitX=1;exitY=0.5;exitDx=0;exitDy=0;" parent="1" target="LSgEw5MmOkTpCxkL0QqH-12" edge="1">
          <mxGeometry relative="1" as="geometry">
            <mxPoint x="380" y="390" as="sourcePoint" />
            <Array as="points">
              <mxPoint x="400" y="390" />
              <mxPoint x="400" y="530" />
            </Array>
          </mxGeometry>
        </mxCell>
        <mxCell id="eTK_frsckVeU1uCwgibv-93" value="&lt;a href=&quot;https://github.com/AfrikaBurn/TMI/issues/53&quot;&gt;Success&lt;/a&gt;" style="text;html=1;strokeColor=none;fillColor=none;align=center;verticalAlign=middle;whiteSpace=wrap;rounded=0;" parent="1" vertex="1">
          <mxGeometry x="349" y="319" width="40" height="20" as="geometry" />
        </mxCell>
        <mxCell id="eTK_frsckVeU1uCwgibv-94" value="&lt;a href=&quot;https://github.com/AfrikaBurn/TMI/issues/53&quot;&gt;Submits login&lt;/a&gt;" style="text;html=1;strokeColor=none;fillColor=none;align=center;verticalAlign=middle;whiteSpace=wrap;rounded=0;" parent="1" vertex="1">
          <mxGeometry x="190" y="290" width="80" height="20" as="geometry" />
        </mxCell>
        <mxCell id="eTK_frsckVeU1uCwgibv-98" style="edgeStyle=orthogonalEdgeStyle;rounded=0;orthogonalLoop=1;jettySize=auto;html=1;exitX=0.5;exitY=1;exitDx=0;exitDy=0;entryX=0;entryY=0.5;entryDx=0;entryDy=0;" parent="1" source="eTK_frsckVeU1uCwgibv-91" target="eTK_frsckVeU1uCwgibv-96" edge="1">
          <mxGeometry relative="1" as="geometry" />
        </mxCell>
        <mxCell id="eTK_frsckVeU1uCwgibv-99" style="edgeStyle=orthogonalEdgeStyle;rounded=0;orthogonalLoop=1;jettySize=auto;html=1;exitX=0.5;exitY=1;exitDx=0;exitDy=0;entryX=1;entryY=0.5;entryDx=0;entryDy=0;" parent="1" source="eTK_frsckVeU1uCwgibv-75" target="eTK_frsckVeU1uCwgibv-78" edge="1">
          <mxGeometry relative="1" as="geometry">
            <Array as="points">
              <mxPoint x="700" y="721" />
            </Array>
          </mxGeometry>
        </mxCell>
        <mxCell id="LSgEw5MmOkTpCxkL0QqH-9" style="edgeStyle=orthogonalEdgeStyle;rounded=0;orthogonalLoop=1;jettySize=auto;html=1;entryX=1;entryY=0.5;entryDx=0;entryDy=0;" parent="1" source="LSgEw5MmOkTpCxkL0QqH-7" target="eTK_frsckVeU1uCwgibv-66" edge="1">
          <mxGeometry relative="1" as="geometry" />
        </mxCell>
        <mxCell id="LSgEw5MmOkTpCxkL0QqH-10" value="Social Stream" style="swimlane;whiteSpace=wrap;startSize=23;" parent="1" vertex="1">
          <mxGeometry x="640" y="80" width="120" height="680" as="geometry" />
        </mxCell>
        <mxCell id="eTK_frsckVeU1uCwgibv-75" value="Shows participant feed" style="rounded=0;whiteSpace=wrap;html=1;fontFamily=Helvetica;fontSize=12;fontColor=#000000;align=center;" parent="LSgEw5MmOkTpCxkL0QqH-10" vertex="1">
          <mxGeometry x="20" y="560" width="80" height="60" as="geometry" />
        </mxCell>
        <mxCell id="LSgEw5MmOkTpCxkL0QqH-14" style="edgeStyle=orthogonalEdgeStyle;rounded=0;orthogonalLoop=1;jettySize=auto;html=1;" parent="1" source="LSgEw5MmOkTpCxkL0QqH-12" target="eTK_frsckVeU1uCwgibv-75" edge="1">
          <mxGeometry relative="1" as="geometry" />
        </mxCell>
        <mxCell id="LSgEw5MmOkTpCxkL0QqH-17" style="edgeStyle=orthogonalEdgeStyle;rounded=0;orthogonalLoop=1;jettySize=auto;html=1;entryX=0;entryY=0.5;entryDx=0;entryDy=0;" parent="1" source="LSgEw5MmOkTpCxkL0QqH-12" target="LSgEw5MmOkTpCxkL0QqH-16" edge="1">
          <mxGeometry relative="1" as="geometry">
            <Array as="points">
              <mxPoint x="460" y="580" />
            </Array>
          </mxGeometry>
        </mxCell>
        <mxCell id="eTK_frsckVeU1uCwgibv-78" value="" style="ellipse;html=1;shape=endState;fillColor=#000000;strokeColor=#ff0000;" parent="1" vertex="1">
          <mxGeometry x="145" y="706" width="30" height="30" as="geometry" />
        </mxCell>
        <mxCell id="LSgEw5MmOkTpCxkL0QqH-19" style="edgeStyle=orthogonalEdgeStyle;rounded=0;orthogonalLoop=1;jettySize=auto;html=1;entryX=1;entryY=0.5;entryDx=0;entryDy=0;" parent="1" source="LSgEw5MmOkTpCxkL0QqH-16" target="LSgEw5MmOkTpCxkL0QqH-18" edge="1">
          <mxGeometry relative="1" as="geometry">
            <Array as="points">
              <mxPoint x="580" y="620" />
            </Array>
          </mxGeometry>
        </mxCell>
        <mxCell id="LSgEw5MmOkTpCxkL0QqH-21" style="edgeStyle=orthogonalEdgeStyle;rounded=0;orthogonalLoop=1;jettySize=auto;html=1;" parent="1" source="LSgEw5MmOkTpCxkL0QqH-18" target="LSgEw5MmOkTpCxkL0QqH-20" edge="1">
          <mxGeometry relative="1" as="geometry">
            <Array as="points">
              <mxPoint x="160" y="610" />
            </Array>
          </mxGeometry>
        </mxCell>
        <mxCell id="LSgEw5MmOkTpCxkL0QqH-22" style="edgeStyle=orthogonalEdgeStyle;rounded=0;orthogonalLoop=1;jettySize=auto;html=1;" parent="1" source="LSgEw5MmOkTpCxkL0QqH-20" target="eTK_frsckVeU1uCwgibv-75" edge="1">
          <mxGeometry relative="1" as="geometry" />
        </mxCell>
      </root>
    </mxGraphModel>
  </diagram>
</mxfile>
